<?xml version="1.0" standalone="no"?>
<!DOCTYPE svg PUBLIC "-//W3C//DTD SVG 20010904//EN"
 "http://www.w3.org/TR/2001/REC-SVG-20010904/DTD/svg10.dtd">
<svg version="1.0" xmlns="http://www.w3.org/2000/svg"
 width="300.000000pt" height="308.000000pt" viewBox="0 0 300.000000 308.000000"
 preserveAspectRatio="xMidYMid meet">
<metadata>
Created by potrace 1.10, written by Peter Selinger 2001-2011
</metadata>
<g transform="translate(0.000000,308.000000) scale(0.050000,-0.050000)"
fill="#495aae" stroke="none">
<path d="M2910 6146 c-96 -24 -173 -75 -215 -143 l-45 -73 -6 -1021 -6 -1020
-264 -160 c-146 -87 -739 -447 -1319 -799 l-1054 -640 0 -347 c-1 -270 5 -345
24 -338 14 5 209 70 435 143 226 74 805 264 1288 423 483 159 891 289 905 289
22 0 27 -131 27 -709 l0 -709 -310 -244 -310 -244 0 -267 c0 -147 8 -267 17
-267 10 0 221 63 470 141 385 120 461 138 517 122 36 -10 243 -73 459 -141
216 -67 398 -122 405 -122 7 0 12 121 12 269 l0 269 -310 242 -310 242 0 709
c0 578 5 709 27 709 14 0 422 -130 905 -289 483 -159 1063 -349 1288 -423 226
-73 421 -138 435 -143 19 -7 25 68 24 338 l0 347 -1339 800 -1339 800 0 982
c-1 1025 -5 1071 -89 1165 -76 84 -224 134 -322 109z"/>
</g>
</svg>
